<svg width="301.143" height="68" viewBox="0 0 186 42" fill="none" xmlns="http://www.w3.org/2000/svg">
<rect x="0" y="6" width="42" height="6" fill="#D94F30"/>
<rect x="0" y="12" width="6" height="6" fill="#D94F30"/>
<rect x="18" y="12" width="6" height="6" fill="#D94F30"/>
<rect x="36" y="12" width="6" height="6" fill="#D94F30"/>
<rect x="0" y="18" width="6" height="6" fill="#D94F30"/>
<rect x="6" y="18" width="12" height="6" fill="#FFD3A8"/>
<rect x="18" y="18" width="6" height="6" fill="#D94F30"/>
<rect x="24" y="18" width="12" height="6" fill="#FFD3A8"/>
<rect x="36" y="18" width="6" height="6" fill="#D94F30"/>
<rect x="0" y="24" width="6" height="6" fill="#D94F30"/>
<rect x="6" y="24" width="12" height="6" fill="#FFD3A8"/>
<rect x="18" y="24" width="6" height="6" fill="#D94F30"/>
<rect x="24" y="24" width="12" height="6" fill="#FFD3A8"/>
<rect x="36" y="24" width="6" height="6" fill="#D94F30"/>
<rect x="0" y="30" width="6" height="6" fill="#D94F30"/>
<rect x="6" y="30" width="12" height="6" fill="#FFD3A8"/>
<rect x="18" y="30" width="6" height="6" fill="#D94F30"/>
<rect x="24" y="30" width="12" height="6" fill="#FFD3A8"/>
<rect x="36" y="30" width="6" height="6" fill="#D94F30"/>
<rect x="48" y="6" width="24" height="6" fill="#D94F30"/>
<rect x="48" y="12" width="6" height="6" fill="#D94F30"/>
<rect x="66" y="12" width="6" height="6" fill="#D94F30"/>
<rect x="48" y="18" width="24" height="6" fill="#D94F30"/>
<rect x="48" y="24" width="6" height="6" fill="#D94F30"/>
<rect x="54" y="24" width="18" height="6" fill="#FFD3A8"/>
<rect x="48" y="30" width="24" height="6" fill="#D94F30"/>
<rect x="78" y="0" width="12" height="6" fill="#D94F30"/>
<rect x="84" y="6" width="6" height="6" fill="#D94F30"/>
<rect x="84" y="12" width="6" height="6" fill="#D94F30"/>
<rect x="84" y="18" width="6" height="6" fill="#D94F30"/>
<rect x="84" y="24" width="6" height="6" fill="#D94F30"/>
<rect x="78" y="30" width="18" height="6" fill="#D94F30"/>
<rect x="120" y="0" width="6" height="6" fill="#D94F30"/>
<rect x="102" y="6" width="24" height="6" fill="#D94F30"/>
<rect x="102" y="12" width="6" height="6" fill="#D94F30"/>
<rect x="120" y="12" width="6" height="6" fill="#D94F30"/>
<rect x="102" y="18" width="6" height="6" fill="#D94F30"/>
<rect x="108" y="18" width="12" height="6" fill="#FFD3A8"/>
<rect x="120" y="18" width="6" height="6" fill="#D94F30"/>
<rect x="102" y="24" width="6" height="6" fill="#D94F30"/>
<rect x="108" y="24" width="12" height="6" fill="#FFD3A8"/>
<rect x="120" y="24" width="6" height="6" fill="#D94F30"/>
<rect x="102" y="30" width="24" height="6" fill="#D94F30"/>
<rect x="132" y="6" width="24" height="6" fill="#FF8560"/>
<rect x="132" y="12" width="6" height="6" fill="#FF8560"/>
<rect x="150" y="12" width="6" height="6" fill="#FF8560"/>
<rect x="132" y="18" width="24" height="6" fill="#FF8560"/>
<rect x="132" y="24" width="6" height="6" fill="#FF8560"/>
<rect x="138" y="24" width="18" height="6" fill="#FFD3A8"/>
<rect x="132" y="30" width="24" height="6" fill="#FF8560"/>
<rect x="162" y="6" width="24" height="6" fill="#FF8560"/>
<rect x="162" y="12" width="6" height="6" fill="#FF8560"/>
<rect x="180" y="12" width="6" height="6" fill="#FF8560"/>
<rect x="162" y="18" width="6" height="6" fill="#FF8560"/>
<rect x="168" y="18" width="18" height="6" fill="#FFD3A8"/>
<rect x="162" y="24" width="6" height="6" fill="#FF8560"/>
<rect x="168" y="24" width="18" height="6" fill="#FFD3A8"/>
<rect x="162" y="30" width="6" height="6" fill="#FF8560"/>
<rect x="168" y="30" width="18" height="6" fill="#FFD3A8"/>
</svg>
